<svg width="245" height="860" viewBox="0 0 245 860" fill="none" xmlns="http://www.w3.org/2000/svg">
<mask id="path-1-outside-1_28_73" maskUnits="userSpaceOnUse" x="97" y="0" width="51" height="756" fill="black">
<rect fill="white" x="97" width="51" height="756"/>
<path d="M107 0H138V746H107V0Z"/>
</mask>
<path d="M107 0H138V746H107V0Z" fill="#FEEDBA"/>
<path d="M138 746V756H148V746H138ZM107 746H97V756H107V746ZM138 0H128V746H138H148V0H138ZM138 746V736H107V746V756H138V746ZM107 746H117V0H107H97V746H107Z" fill="#7A588D" mask="url(#path-1-outside-1_28_73)"/>
<path d="M83.415 730.412L102.988 738.893L110.862 742.305L104.011 747.473L47.5166 790.079L99.9482 835.016L105.492 839.768L99.0576 843.219L83.791 851.406L80.7422 853.041L78.1377 850.766L12.71 793.596L8.31055 789.751L12.7881 785.998L78.2158 731.168L80.582 729.185L83.415 730.412Z" fill="#CECACE" stroke="#7A588D" stroke-width="10"/>
<path d="M161.585 851.588L142.012 843.107L134.138 839.695L140.989 834.527L197.483 791.921L145.052 746.984L139.508 742.232L145.942 738.781L161.209 730.594L164.258 728.959L166.862 731.234L232.29 788.404L236.689 792.249L232.212 796.002L166.784 850.832L164.418 852.815L161.585 851.588Z" fill="#CECACE" stroke="#7A588D" stroke-width="10"/>
<rect x="77" y="727" width="92" height="37" fill="#FEEDBA" stroke="#7A588D" stroke-width="10"/>
</svg>
