<svg width="128" height="730" viewBox="0 0 128 730" fill="none" xmlns="http://www.w3.org/2000/svg">
<mask id="path-1-outside-1_19_354" maskUnits="userSpaceOnUse" x="46" y="0" width="36" height="680" fill="black">
<rect fill="white" x="46" width="36" height="680"/>
<path d="M56 0H72V670H56V0Z"/>
</mask>
<path d="M56 0H72V670H56V0Z" fill="#FEEDBA"/>
<path d="M72 670V680H82V670H72ZM56 670H46V680H56V670ZM72 0H62V670H72H82V0H72ZM72 670V660H56V670V680H72V670ZM56 670H66V0H56H46V670H56Z" fill="#7A588D" mask="url(#path-1-outside-1_19_354)"/>
<path id="claw-left" d="M43.3271 661.934L53.5977 666.384L57.5352 668.09L54.1094 670.674L24.3408 693.124L51.9717 716.805L54.7432 719.181L51.5264 720.906L43.5146 725.203L41.9912 726.021L40.6885 724.883L6.35547 694.883L4.15527 692.96L6.39453 691.084L40.7275 662.312L41.9111 661.321L43.3271 661.934Z" fill="#CECACE" stroke="#7A588D" stroke-width="5"/>
<path id="claw-right" d="M84.4451 725.294L74.1746 720.844L70.2371 719.138L73.6628 716.554L103.431 694.104L75.8005 670.423L73.0291 668.047L76.2458 666.321L84.2576 662.024L85.781 661.207L87.0837 662.345L121.417 692.345L123.617 694.268L121.378 696.144L87.0447 724.916L85.8611 725.907L84.4451 725.294Z" fill="#CECACE" stroke="#7A588D" stroke-width="5"/>
<rect x="39.8862" y="659.906" width="48.5248" height="19.6634" fill="#FEEDBA" stroke="#7A588D" stroke-width="5"/>
</svg>
