<svg width="245" height="518" viewBox="0 0 245 518" fill="none" xmlns="http://www.w3.org/2000/svg">
<mask id="path-1-outside-1_13_142" maskUnits="userSpaceOnUse" x="97" y="0" width="51" height="414" fill="black">
<rect fill="white" x="97" width="51" height="414"/>
<path d="M107 0H138V404H107V0Z"/>
</mask>
<path d="M107 0H138V404H107V0Z" fill="#FEEDBA"/>
<path d="M138 404V414H148V404H138ZM107 404H97V414H107V404ZM138 0H128V404H138H148V0H138ZM138 404V394H107V404V414H138V404ZM107 404H117V0H107H97V404H107Z" fill="#7A588D" mask="url(#path-1-outside-1_13_142)"/>
<path id="claw-left" d="M83.415 388.412L102.988 396.893L110.863 400.305L104.011 405.473L47.5166 448.079L99.9482 493.016L105.492 497.768L99.0576 501.219L83.791 509.406L80.7422 511.041L78.1377 508.766L12.71 451.596L8.31055 447.751L12.7881 443.998L78.2158 389.168L80.582 387.185L83.415 388.412Z" fill="#CECACE" stroke="#7A588D" stroke-width="10"/>
<path id="claw-right" d="M161.585 509.588L142.012 501.107L134.137 497.695L140.989 492.527L197.483 449.921L145.052 404.984L139.508 400.232L145.942 396.781L161.209 388.594L164.258 386.959L166.862 389.234L232.29 446.404L236.689 450.249L232.212 454.002L166.784 508.832L164.418 510.815L161.585 509.588Z" fill="#CECACE" stroke="#7A588D" stroke-width="10"/>
<rect x="77" y="385" width="92" height="37" fill="#FEEDBA" stroke="#7A588D" stroke-width="10"/>
</svg>
